<svg aria-label="bold" width="24" height="24" viewBox="0 0 24 24" xmlns="http://www.w3.org/2000/svg">
<path fill-rule="evenodd" clip-rule="evenodd" d="M17.9231 8.5C17.9231 6.03921 16.4352 4 11.4688 4H5.53846C5.53846 4 5.53846 4 5.53846 4C5.44039 4 5.34843 4.02435 5.26923 4.06689C5.19834 4.10497 5.13767 4.15763 5.09196 4.22045C5.0339 4.30025 5 4.39645 5 4.5V19.5C5 19.7761 5.24108 20 5.53846 20H11.6087C16.4585 20 19 19 19 15.5C19 13.5196 18.1788 12.3396 16.5661 11.6883C17.5523 10.8696 17.9231 9.73817 17.9231 8.5ZM7.15385 17.9395L11.4921 17.9395C14.9896 17.9395 16.9482 17.6562 16.9482 15.4575C16.9482 13.5 15.1528 13.0392 11.6087 13.0392H7.15385L7.15385 17.9395ZM7.15385 10.9395L11.4921 10.9395C14.9896 10.9395 15.8712 9.91503 15.8712 8.45752C15.8712 7 15.1528 6.03921 11.6087 6.03921L7.15385 6.03922L7.15385 10.9395Z"/>
</svg>
