<svg width="24" aria-label="add image" height="24" viewBox="0 0 24 24" xmlns="http://www.w3.org/2000/svg">
<path d="M5 5V19H19V12.5C19 12.2239 19.2239 12 19.5 12H20.5C20.7761 12 21 12.2239 21 12.5V20C21 20.5523 20.5523 21 20 21H4C3.44772 21 3 20.5523 3 20V4C3 3.44772 3.44772 3 4 3H11.5C11.7761 3 12 3.22386 12 3.5V4.5C12 4.77614 11.7761 5 11.5 5H5Z"/>
<path d="M18 3.5C18 3.22386 17.7761 3 17.5 3H16.5C16.2239 3 16 3.22386 16 3.5V6H13.5C13.2239 6 13 6.22386 13 6.5V7.5C13 7.77614 13.2239 8 13.5 8H16V10.5C16 10.7761 16.2239 11 16.5 11H17.5C17.7761 11 18 10.7761 18 10.5V8H20.5C20.7761 8 21 7.77614 21 7.5V6.5C21 6.22386 20.7761 6 20.5 6H18V3.5Z"/>
<path d="M7.20711 17H17.0657C17.4651 17 17.7033 16.5549 17.4818 16.2227L14.392 11.588C14.2006 11.301 13.783 11.2894 13.576 11.5654L11 15L9.32233 14.1612C9.12984 14.0649 8.89735 14.1026 8.74517 14.2548L6.85355 16.1464C6.53857 16.4614 6.76165 17 7.20711 17Z"/>
</svg>
