<svg aria-label="list (numbers)" width="24" height="24" viewBox="0 0 24 24" fill="none" xmlns="http://www.w3.org/2000/svg">
<path d="M3.80488 9.75005C3.80488 9.88812 3.91681 10.0001 4.05488 10.0001H7.06888C7.20695 10.0001 7.31888 9.88812 7.31888 9.75005V8.87805C7.31888 8.73998 7.20695 8.62805 7.06888 8.62805H6.26888V5.15405C6.26888 5.01598 6.15695 4.90405 6.01888 4.90405H5.17058C5.11997 4.90405 5.07055 4.91941 5.02886 4.9481L3.87523 5.74194C3.7653 5.81758 3.73416 5.96622 3.80447 6.07963L4.19121 6.7034C4.26662 6.82502 4.42853 6.85865 4.54613 6.77712L4.85488 6.56305V8.62805H4.05488C3.91681 8.62805 3.80488 8.73998 3.80488 8.87805V9.75005Z" fill="white"/>
<path d="M9.49995 5H20.5C20.7761 5 21 5.22388 21 5.5V6.5C21 6.77612 20.7761 7 20.5 7H9.49995C9.22383 7 8.99995 6.77612 8.99995 6.5V5.5C8.99995 5.22388 9.22383 5 9.49995 5Z" fill="white"/>
<path d="M20.5 11H9.49995C9.22383 11 8.99995 11.2239 8.99995 11.5V12.5C8.99995 12.7761 9.22383 13 9.49995 13H20.5C20.7761 13 21 12.7761 21 12.5V11.5C21 11.2239 20.7761 11 20.5 11Z" fill="white"/>
<path d="M20.5 17H9.49995C9.22383 17 8.99995 17.2239 8.99995 17.5V18.5C8.99995 18.7761 9.22383 19 9.49995 19H20.5C20.7761 19 21 18.7761 21 18.5V17.5C21 17.2239 20.7761 17 20.5 17Z" fill="white"/>
<path d="M3.88689 18.9999C3.74882 18.9999 3.63689 18.888 3.63689 18.7499V18.1693C3.63689 18.1049 3.66177 18.0429 3.70633 17.9964L5.37989 16.2489C5.37989 16.2489 5.82089 15.8499 5.82089 15.5209C5.82089 15.3179 5.65989 15.1569 5.42189 15.1569C5.22461 15.1569 5.06702 15.2528 4.98777 15.4174C4.92416 15.5495 4.80633 15.671 4.66029 15.6583L3.79802 15.5836C3.66481 15.572 3.56251 15.4571 3.58324 15.325C3.72177 14.4423 4.42068 13.8269 5.45689 13.8269C6.63289 13.8269 7.31889 14.5129 7.31889 15.4019C7.31889 16.2139 6.47189 16.9349 6.47189 16.9349L5.82089 17.6279H7.06889C7.20696 17.6279 7.31889 17.7398 7.31889 17.8779V18.7499C7.31889 18.888 7.20696 18.9999 7.06889 18.9999H3.88689Z" fill="white"/>
</svg>
