<svg aria-label="list (checks)" id="uuid-bde2adca-f7d6-4b04-89b7-4f35d8712975" data-name="Layer 1" xmlns="http://www.w3.org/2000/svg" viewBox="0 0 24 24">
  <path d="m22,7.5c0-.28-.22-.5-.5-.5h-8c-.28,0-.5.22-.5.5v1c0,.28.22.5.5.5h8c.28,0,.5-.22.5-.5v-1Zm0,8c0-.28-.22-.5-.5-.5h-8c-.28,0-.5.22-.5.5v1c0,.28.22.5.5.5h8c.28,0,.5-.22.5-.5v-1ZM5.54,11l-3.19-3.19c-.2-.2-.2-.51,0-.71l.7-.7c.2-.2.51-.2.71,0l1.77,1.77,3.89-3.89c.2-.2.51-.2.71,0l.7.7c.2.2.2.51,0,.71l-5.29,5.31Zm0,8l-3.19-3.19c-.2-.2-.2-.51,0-.71l.7-.7c.2-.2.51-.2.71,0l1.77,1.77,3.89-3.89c.2-.2.51-.2.71,0l.7.7c.2.2.2.51,0,.71l-5.29,5.31Z" style="stroke-width: 0px;"/>
</svg>
