<svg aria-label="underline" width="24" height="24" viewBox="0 0 24 24" xmlns="http://www.w3.org/2000/svg">
<path d="M18 9.00677C18 13.6184 15.4085 16 11.5 16C7.5915 16 5 13.6401 5 9.13667V3.5C5 3.22386 5.22386 3 5.5 3H6.56046C6.8366 3 7.06046 3.22386 7.06046 3.5V9.02842C7.06046 12.276 8.73856 14.0947 11.5425 14.0947C14.2402 14.0947 15.9608 12.4276 15.9608 9.13667V3.5C15.9608 3.22386 16.1846 3 16.4608 3H17.5C17.7761 3 18 3.22386 18 3.5V9.00677Z" fill="white"/>
<path d="M5.5 19C5.22386 19 5 19.2239 5 19.5V20.5C5 20.7761 5.22386 21 5.5 21H17.5C17.7761 21 18 20.7761 18 20.5V19.5C18 19.2239 17.7761 19 17.5 19H5.5Z" fill="white"/>
</svg>
