<svg aria-label="format text" width="24" height="24" viewBox="0 0 24 24" fill="none" xmlns="http://www.w3.org/2000/svg">
<path d="M2.33984 17.3251C2.21775 17.6518 2.45937 18.0001 2.80822 18.0001H4.05179C4.26481 18.0001 4.45443 17.8651 4.52421 17.6638L5.23965 15.6001H9.67165L10.3871 17.6638C10.4569 17.8651 10.6465 18.0001 10.8595 18.0001H12.088C12.4366 18.0001 12.6782 17.6523 12.5566 17.3256L8.59284 6.67762C8.51998 6.48188 8.33312 6.35205 8.12425 6.35205H6.78659C6.57795 6.35205 6.39124 6.48161 6.31822 6.67705L2.33984 17.3251ZM5.97565 13.5681L7.44765 9.31205L8.93565 13.5681H5.97565Z" fill="white"/>
<path d="M16.5389 18.0961C18.0269 18.0961 18.9549 17.1681 18.9549 17.1681L19.1912 17.7023C19.2713 17.8833 19.4506 18.0001 19.6485 18.0001H20.3909C20.667 18.0001 20.8909 17.7762 20.8909 17.5001V12.7361C20.8909 10.8001 19.4989 9.40805 17.5629 9.40805C15.6887 9.40805 14.4598 10.4134 14.0732 11.7244C13.9888 12.0105 14.2239 12.2721 14.5222 12.2721H15.6768C15.917 12.2721 16.1239 12.0954 16.2552 11.8942C16.4228 11.6374 16.7502 11.3441 17.3709 11.3441C18.2029 11.3441 18.7629 11.9041 18.7629 12.8321C14.8749 12.8321 13.6749 14.0321 13.6749 15.6961C13.6749 17.0721 14.6989 18.0961 16.5389 18.0961ZM16.9229 16.4321C16.2669 16.4321 15.8029 15.9681 15.8029 15.5041C15.8029 14.7681 16.2669 14.3041 18.7629 14.3041V14.6721C18.7629 15.6961 18.0269 16.4321 16.9229 16.4321Z" fill="white"/>
</svg>
